<svg width="100" height="80" viewBox="0 0 100 80" fill="none" xmlns="http://www.w3.org/2000/svg">
<g clip-path="url(#clip0)">
<path d="M39.9553 40.8828C40.9345 41.8594 42.5215 41.8594 43.5007 40.8828L45.2726 39.1156C46.2518 38.1391 46.2518 36.5563 45.2726 35.5797L39.6764 30L45.271 24.4188C46.2502 23.4422 46.2502 21.8594 45.271 20.8828L43.4991 19.1156C42.5199 18.1391 40.9329 18.1391 39.9537 19.1156L30.8136 28.2312C29.8345 29.2078 29.8345 30.7906 30.8136 31.7672L39.9553 40.8828ZM54.9971 39.1172L56.769 40.8844C57.7482 41.8609 59.3352 41.8609 60.3144 40.8844L69.4545 31.7688C70.4336 30.7922 70.4336 29.2094 69.4545 28.2328L60.3144 19.1172C59.3352 18.1406 57.7482 18.1406 56.769 19.1172L54.9971 20.8844C54.0179 21.8609 54.0179 23.4437 54.9971 24.4203L60.5917 30L54.9971 35.5812C54.0179 36.5578 54.0179 38.1406 54.9971 39.1172ZM97.7614 65H59.7755C59.6595 68.0953 57.4709 70 54.6461 70H45.1206C42.1925 70 39.9474 67.2703 39.9866 65H2.5067C1.12802 65 0 66.125 0 67.5V70C0 75.5 4.51206 80 10.0268 80H90.2413C95.756 80 100.268 75.5 100.268 70V67.5C100.268 66.125 99.1401 65 97.7614 65ZM90.2413 7.5C90.2413 3.375 86.8572 0 82.7212 0H17.5469C13.4109 0 10.0268 3.375 10.0268 7.5V60H90.2413V7.5ZM80.2145 50H20.0536V10H80.2145V50Z" fill="#5200FF"/>
</g>
<defs>
<clipPath id="clip0">
<rect width="100" height="80" fill="white"/>
</clipPath>
</defs>
</svg>
