<svg width="80" height="80" viewBox="0 0 80 80" fill="none" xmlns="http://www.w3.org/2000/svg">
<path d="M17.1036 38.1321L38.1313 17.1075L31.2377 10.2139L21.6004 19.8512C21.4854 19.9663 21.3489 20.0577 21.1987 20.12C21.0484 20.1823 20.8873 20.2144 20.7246 20.2144C20.5619 20.2144 20.4008 20.1823 20.2506 20.12C20.1003 20.0577 19.9638 19.9663 19.8488 19.8512L18.0973 18.0997C17.613 17.6153 17.613 16.8309 18.0973 16.3481L27.7346 6.71081L22.4785 1.4531C20.5426 -0.482803 17.4051 -0.482803 15.4692 1.4531L1.45232 15.47C-0.482013 17.4059 -0.483575 20.5434 1.45232 22.4793L17.1036 38.1321ZM77.8009 19.8824C80.732 16.9512 80.7305 12.1998 77.8009 9.26857L70.7307 2.1984C67.7995 -0.732798 63.0465 -0.732798 60.1137 2.1984L52.9232 9.38732L70.6104 27.0745L77.8009 19.8824ZM49.3873 12.9248L2.98198 59.3239L0.0507895 76.111C-0.344515 78.375 1.62732 80.3469 3.8929 79.9485L20.6816 77.0048L67.0745 30.6103L49.3873 12.9248ZM78.5477 57.5223L73.2916 52.2662L63.6543 61.9035C63.1699 62.3879 62.3855 62.3879 61.9027 61.9035L60.1512 60.152C59.6684 59.6676 59.6684 58.8832 60.1512 58.4004L69.7885 48.7631L62.8918 41.8664L41.864 62.891L57.5216 78.5469C59.4575 80.4828 62.5949 80.4828 64.5308 78.5469L78.5477 64.5316C80.4836 62.5957 80.4836 59.4582 78.5477 57.5223Z" fill="#5200FF"/>
</svg>
