<svg width="74" height="98" viewBox="0 0 74 98" fill="none" xmlns="http://www.w3.org/2000/svg">
<g clip-path="url(#clip0)">
<path d="M52.8735 32.673C57.1943 32.673 61.3381 30.9519 64.3934 27.8882C67.4486 24.8245 69.165 20.6692 69.165 16.3365C69.165 12.0038 67.4486 7.84855 64.3934 4.78486C61.3381 1.72116 57.1943 0 52.8735 0L20.2905 0C15.9722 0 11.8308 1.72016 8.77736 4.78205C5.72389 7.84395 4.00847 11.9968 4.00847 16.327C4.00847 20.6571 5.72389 24.81 8.77736 27.8719C11.8308 30.9338 15.9722 32.6539 20.2905 32.6539C15.9697 32.6539 11.8259 34.3751 8.77061 37.4388C5.71535 40.5025 3.99893 44.6577 3.99893 48.9904C3.99893 53.3231 5.71535 57.4784 8.77061 60.5421C11.8259 63.6058 15.9697 65.327 20.2905 65.327C17.0683 65.3251 13.9179 66.2813 11.2378 68.0748C8.55759 69.8683 6.46797 72.4185 5.23316 75.4029C3.99835 78.3873 3.6738 81.6718 4.30057 84.8412C4.92733 88.0105 6.47724 90.9223 8.75432 93.2084C11.0314 95.4944 13.9334 97.052 17.0932 97.6842C20.2531 98.3164 23.529 97.9948 26.5066 96.7601C29.4842 95.5254 32.0298 93.433 33.8215 90.7475C35.6132 88.062 36.5706 84.9041 36.5724 81.673V32.673H52.8735ZM52.8735 32.673C49.6532 32.673 46.5053 33.6306 43.8277 35.4246C41.1502 37.2187 39.0633 39.7686 37.8309 42.7519C36.5986 45.7353 36.2761 49.0181 36.9044 52.1852C37.5326 55.3523 39.0833 58.2615 41.3604 60.5449C43.6375 62.8283 46.5387 64.3833 49.6971 65.0132C52.8555 65.6432 56.1292 65.3199 59.1044 64.0841C62.0795 62.8484 64.6224 60.7557 66.4115 58.0708C68.2006 55.3858 69.1555 52.2292 69.1555 49C69.155 44.67 67.4394 40.5174 64.3861 37.4557C61.3327 34.3939 57.1916 32.6736 52.8735 32.673Z" fill="#5200FF"/>
</g>
<defs>
<clipPath id="clip0">
<rect width="73.2976" height="98" fill="white"/>
</clipPath>
</defs>
</svg>
