<svg width="87" height="98" viewBox="0 0 87 98" fill="none" xmlns="http://www.w3.org/2000/svg">
<g clip-path="url(#clip0)">
<path d="M0.487823 6.125V91.875H86.0016V6.125H0.487823ZM47.0241 73.0023C47.0241 81.3477 42.1376 85.1566 35.0178 85.1566C28.5852 85.1566 24.8631 81.8262 22.9543 77.7875L29.5014 73.8254C30.7612 76.0648 31.9065 77.9598 34.6743 77.9598C37.3084 77.9598 38.9881 76.9262 38.9881 72.8875V45.4973H47.0241V73.0023ZM66.0357 85.1566C58.5723 85.1566 53.7431 81.5965 51.3953 76.9262L57.9424 73.1363C59.6603 75.95 61.9127 78.0363 65.8639 78.0363C69.1852 78.0363 71.3231 76.3711 71.3231 74.0551C71.3231 71.2988 69.147 70.3227 65.4631 68.6957L63.4588 67.8344C57.6561 65.3652 53.8194 62.2453 53.8194 55.6801C53.8194 49.6316 58.4196 45.0379 65.5776 45.0379C70.6931 45.0379 74.358 46.818 76.9922 51.4883L70.7313 55.5078C69.357 53.0387 67.8681 52.0625 65.5585 52.0625C63.2107 52.0625 61.7218 53.5555 61.7218 55.5078C61.7218 57.9195 63.2107 58.8957 66.6656 60.4078L68.6698 61.2691C75.5033 64.1977 79.34 67.2027 79.34 73.9402C79.34 81.1754 73.6518 85.1566 66.0357 85.1566Z" fill="#5200FF"/>
</g>
<defs>
<clipPath id="clip0">
<rect width="85.5138" height="98" fill="white" transform="translate(0.487823)"/>
</clipPath>
</defs>
</svg>
