<svg width="86" height="98" viewBox="0 0 86 98" fill="none" xmlns="http://www.w3.org/2000/svg">
<g clip-path="url(#clip0)">
<path d="M43.135 97.2343C41.8561 97.2343 40.5582 96.8898 39.432 96.239L27.6547 89.2527C25.8986 88.2574 26.7576 87.9128 27.3302 87.7214C29.678 86.8984 30.1552 86.7261 32.6558 85.2906C32.923 85.1375 33.2666 85.1949 33.5338 85.3671L42.5815 90.7457C42.906 90.9371 43.3641 90.9371 43.6695 90.7457L78.9248 70.3418C79.2493 70.1504 79.4593 69.7675 79.4593 69.3847V28.5769C79.4593 28.175 79.2493 27.8113 78.9058 27.6007L43.6695 7.21597C43.345 7.02456 42.906 7.02456 42.5815 7.21597L7.36428 27.6199C7.02069 27.8113 6.81073 28.1941 6.81073 28.596V69.3847C6.81073 69.7675 7.02069 70.1503 7.36428 70.3226L17.0228 75.9117C22.2719 78.5339 25.4787 75.4523 25.4787 72.3324V32.0605C25.4787 31.4863 25.9368 31.046 26.5094 31.046H30.976C31.5296 31.046 32.0068 31.4863 32.0068 32.0605V72.3515C32.0068 79.357 28.1892 83.3765 21.5657 83.3765C19.5233 83.3765 17.9199 83.3765 13.4533 81.1562L4.21477 75.816C1.92422 74.4953 0.511719 72.0261 0.511719 69.3656V28.5769C0.511719 25.9355 1.92422 23.4472 4.21477 22.1265L39.432 1.72261C41.6652 0.459326 44.6239 0.459326 46.8381 1.72261L82.0934 22.1457C84.384 23.4664 85.7965 25.9355 85.7965 28.596V69.3847C85.7965 72.0261 84.384 74.4953 82.0934 75.8351L46.8381 96.239C45.7119 96.8898 44.433 97.2343 43.135 97.2343ZM71.5951 57.0199C71.5951 49.3828 66.4413 47.3539 55.6185 45.9183C44.662 44.4636 43.555 43.7171 43.555 41.1523C43.555 39.0277 44.4903 36.1949 52.6026 36.1949C59.8369 36.1949 62.5092 37.7644 63.6163 42.6644C63.7118 43.1238 64.1317 43.4683 64.6089 43.4683H69.19C69.4763 43.4683 69.7436 43.3535 69.9344 43.1429C70.1253 42.9324 70.2208 42.6453 70.2017 42.3582C69.4954 33.9171 63.9027 29.9933 52.6026 29.9933C42.5433 29.9933 36.5497 34.2425 36.5497 41.382C36.5497 49.1148 42.5242 51.2585 52.1636 52.2156C63.7118 53.3449 64.6089 55.0484 64.6089 57.3261C64.6089 61.2691 61.4403 62.9535 54.0151 62.9535C44.6811 62.9535 42.6387 60.5992 41.9516 55.948C41.8752 55.4503 41.4553 55.0867 40.9399 55.0867H36.3779C35.8053 55.0867 35.3662 55.5461 35.3662 56.1011C35.3662 62.0539 38.5921 69.155 54.0342 69.155C65.1815 69.1359 71.5951 64.7144 71.5951 57.0199Z" fill="#5200FF"/>
</g>
<defs>
<clipPath id="clip0">
<rect width="85.5138" height="98" fill="white" transform="translate(0.378052)"/>
</clipPath>
</defs>
</svg>
