<svg width="124" height="98" viewBox="0 0 124 98" fill="none" xmlns="http://www.w3.org/2000/svg">
<g clip-path="url(#clip0)">
<path d="M61.9447 20.002C94.6614 20.002 119.819 33.8215 119.819 49C119.819 64.1786 94.6423 77.9981 61.9447 77.9981C29.228 77.9981 4.07017 64.1786 4.07017 49C4.07017 33.8215 29.2471 20.002 61.9447 20.002ZM61.9447 16.7864C28.2164 16.7864 0.863403 31.1993 0.863403 49C0.863403 66.8008 28.2164 81.2137 61.9447 81.2137C95.673 81.2137 123.026 66.8008 123.026 49C123.026 31.1993 95.673 16.7864 61.9447 16.7864ZM42.5132 46.4161C41.0053 54.168 35.6797 53.3641 29.1326 53.3641L31.7476 39.8508C39.001 39.8508 43.9257 39.0661 42.5132 46.4161ZM19.455 67.0497H26.4603L28.1209 58.4747C35.9661 58.4747 40.8335 59.0489 45.3382 54.8188C50.3202 50.225 51.6181 42.052 48.0678 37.9559C46.2163 35.8122 43.2386 34.7594 39.1919 34.7594H25.6968L19.455 67.0497ZM54.9013 26.1653H61.8684L60.2077 34.7403C66.2204 34.7403 71.7941 34.3 74.4855 36.7883C77.3105 39.3915 75.9552 42.7219 72.9012 58.4364H65.8386C68.7782 43.2387 69.3317 41.9754 68.2628 40.827C67.2321 39.7168 64.8842 39.9465 59.2151 39.9465L55.6266 58.4364H48.6595L54.9013 26.1653ZM97.2573 46.4161C95.7303 54.2829 90.2521 53.3641 83.8767 53.3641L86.4918 39.8508C93.7833 39.8508 98.6698 39.0661 97.2573 46.4161ZM74.1992 67.0497H81.2235L82.8841 58.4747C91.1301 58.4747 95.6921 58.9532 100.101 54.8188C105.083 50.225 106.381 42.052 102.831 37.9559C100.979 35.8122 98.0018 34.7594 93.9551 34.7594H80.46L74.1992 67.0497Z" fill="#5200FF"/>
</g>
<defs>
<clipPath id="clip0">
<rect width="122.163" height="98" fill="white" transform="translate(0.863403)"/>
</clipPath>
</defs>
</svg>
