<svg width="98" height="98" viewBox="0 0 98 98" fill="none" xmlns="http://www.w3.org/2000/svg">
<g clip-path="url(#clip0)">
<path d="M80.0939 33.9172C79.0631 33.5727 78.0324 33.2473 77.0016 32.9411C77.1734 32.2329 77.3261 31.5247 77.4788 30.8165C79.8267 19.4086 78.2805 10.2403 73.0695 7.21606C68.0494 4.32583 59.8607 7.33091 51.5765 14.5661C50.7558 15.2743 49.9541 16.0208 49.1906 16.7672C48.6752 16.2696 48.1407 15.7719 47.6063 15.2934C38.9213 7.56059 30.2172 4.30669 25.0062 7.35005C20.0051 10.2594 18.5163 18.8918 20.616 29.6872C20.8259 30.759 21.055 31.8118 21.3222 32.8836C20.1006 33.2282 18.898 33.611 17.7719 34.0129C7.57892 37.5539 0.26825 43.143 0.26825 48.9235C0.26825 54.8954 8.05612 60.8864 18.6499 64.5231C19.5089 64.8102 20.3678 65.0973 21.2459 65.3461C20.9595 66.4946 20.7114 67.6239 20.4823 68.7914C18.4781 79.4145 20.0433 87.8364 25.0444 90.7266C30.1981 93.7125 38.864 90.65 47.3009 83.2426C47.9689 82.6493 48.637 82.0368 49.3051 81.386C50.145 82.209 51.023 82.9938 51.901 83.7594C60.0707 90.8032 68.1449 93.6551 73.1268 90.7649C78.2805 87.7789 79.9603 78.7254 77.7842 67.7004C77.6124 66.8582 77.4216 65.9969 77.2116 65.1165C77.8224 64.9442 78.4141 64.7528 79.0059 64.5614C90.0196 60.9055 97.9983 54.9911 97.9983 48.9235C97.9983 43.1239 90.4777 37.4965 80.0939 33.9172ZM54.2679 17.6668C61.3686 11.4653 67.9921 9.03442 71.008 10.7762C74.2339 12.6329 75.4746 20.136 73.4513 29.9934C73.3177 30.6442 73.1841 31.2758 73.0123 31.9075C68.7747 30.9504 64.48 30.2614 60.1661 29.8786C57.6847 26.3184 54.9742 22.9114 52.0347 19.7149C52.7791 19.0067 53.5044 18.3368 54.2679 17.6668ZM32.1832 58.8575C33.1567 60.5227 34.1493 62.1879 35.1991 63.8149C32.2214 63.4895 29.2628 63.011 26.3423 62.3793C27.1822 59.6231 28.232 56.7711 29.4537 53.8618C30.3317 55.5461 31.2288 57.2114 32.1832 58.8575ZM26.3996 35.8313C29.1483 35.2188 32.0687 34.7211 35.1037 34.3383C34.092 35.927 33.0995 37.554 32.1641 39.2C31.2288 40.827 30.3126 42.4922 29.4537 44.1766C28.2511 41.3247 27.2395 38.5301 26.3996 35.8313ZM31.6297 49.0192C32.8895 46.3778 34.2638 43.7938 35.7145 41.2481C37.1652 38.7024 38.7304 36.2332 40.3719 33.8024C43.2351 33.5918 46.1556 33.477 49.1333 33.477C52.111 33.477 55.0505 33.5918 57.8946 33.8024C59.5171 36.2141 61.0632 38.6832 62.533 41.2098C64.0028 43.7364 65.3771 46.3204 66.6751 48.9426C65.3962 51.584 64.0219 54.1872 62.5521 56.752C61.1014 59.2977 59.5553 61.7668 57.9328 64.2168C55.0887 64.4274 52.1301 64.5231 49.1333 64.5231C46.1365 64.5231 43.2351 64.4274 40.4292 64.2551C38.7686 61.8243 37.2034 59.336 35.7336 56.7903C34.2638 54.2446 32.9086 51.6606 31.6297 49.0192ZM66.1024 58.8192C67.0759 57.1348 67.9921 55.4313 68.8893 53.7086C70.1109 56.484 71.1798 59.2977 72.1151 62.1879C69.1565 62.8579 66.1597 63.3746 63.1438 63.7192C64.1746 62.1114 65.148 60.4653 66.1024 58.8192ZM68.8511 44.1766C67.954 42.4922 67.0378 40.8079 66.0834 39.1618C65.148 37.5348 64.1746 35.927 63.1629 34.3383C66.2361 34.7211 69.1756 35.2379 71.9243 35.8696C71.0462 38.7024 70.0155 41.4586 68.8511 44.1766ZM49.1715 22.6434C51.1757 24.8254 53.0654 27.1223 54.8215 29.4958C51.0421 29.3235 47.2436 29.3235 43.4642 29.4958C45.3348 27.0266 47.2627 24.7297 49.1715 22.6434ZM27.0295 10.9102C30.2363 9.03442 37.3561 11.7141 44.8576 18.375C45.3348 18.7961 45.812 19.2555 46.3083 19.7149C43.3497 22.9114 40.6201 26.3184 38.1196 29.8786C33.8057 30.2614 29.53 30.9313 25.2925 31.8692C25.0444 30.893 24.8344 29.8977 24.6244 28.9024C22.8302 19.6383 24.0136 12.652 27.0295 10.9102ZM22.353 61.3649C21.5513 61.1352 20.7687 60.8864 19.9861 60.6184C15.9203 59.336 11.3011 57.3071 7.96068 54.6465C6.0328 53.3067 4.73482 51.2395 4.37215 48.9235C4.37215 45.4207 10.4039 40.9418 19.108 37.8985C20.196 37.5157 21.3031 37.1711 22.4102 36.8457C23.7082 40.9993 25.2734 45.0762 27.0868 49.0192C25.2543 53.0196 23.67 57.1539 22.353 61.3649ZM44.6095 80.1227C41.46 83.0129 37.8142 85.3098 33.8439 86.8793C31.7251 87.8938 29.2819 87.9895 27.1058 87.1282C24.0709 85.3672 22.8111 78.6106 24.529 69.5188C24.7389 68.4469 24.968 67.375 25.2352 66.3223C29.5109 67.2411 33.8248 67.8727 38.1959 68.1981C40.7155 71.7774 43.4833 75.2036 46.4419 78.4192C45.8311 79.0125 45.2203 79.5868 44.6095 80.1227ZM49.286 75.4715C47.339 73.3661 45.3921 71.0309 43.5024 68.5235C45.3348 68.6 47.2245 68.6383 49.1333 68.6383C51.0993 68.6383 53.0272 68.6 54.936 68.5043C53.1799 70.9352 51.2902 73.2512 49.286 75.4715ZM74.2339 81.2137C74.0621 83.5489 72.9168 85.7309 71.0844 87.2047C68.0494 88.9657 61.5786 86.6688 54.5924 80.6586C53.7907 79.9696 52.989 79.2231 52.1683 78.4575C55.0887 75.2227 57.7801 71.7965 60.2234 68.1981C64.5945 67.8344 68.9465 67.1645 73.2413 66.1883C73.4322 66.9731 73.604 67.7579 73.7567 68.5235C74.692 72.6579 74.8447 76.9645 74.2339 81.2137ZM77.7079 60.6375C77.1734 60.8098 76.639 60.9821 76.0854 61.1352C74.7493 56.9625 73.1077 52.8856 71.218 48.9235C73.0504 45.0188 74.5966 40.9993 75.8945 36.884C76.8871 37.1711 77.8415 37.4774 78.7577 37.7836C87.6527 40.8461 93.8944 45.4016 93.8944 48.8852C93.8944 52.6368 87.2328 57.4793 77.7079 60.6375ZM49.1333 57.7664C53.9625 57.7664 57.8756 53.8426 57.8756 49C57.8756 44.1575 53.9625 40.2336 49.1333 40.2336C44.3041 40.2336 40.391 44.1575 40.391 49C40.391 53.8426 44.3041 57.7664 49.1333 57.7664Z" fill="#5200FF"/>
</g>
<defs>
<clipPath id="clip0">
<rect width="97.7301" height="98" fill="white" transform="translate(0.26825)"/>
</clipPath>
</defs>
</svg>
