<svg width="86" height="98" viewBox="0 0 86 98" fill="none" xmlns="http://www.w3.org/2000/svg">
<path d="M74.6083 19.9252C74.5792 19.7195 74.4793 19.5304 74.326 19.3906C74.1727 19.2509 73.9755 19.1692 73.7685 19.1596C73.3867 19.1596 66.662 19.0065 66.662 19.0065C66.662 19.0065 62.5371 15.0214 61.0082 13.4883V96.3155L84.9998 90.3436C84.9998 90.3436 74.6847 20.3846 74.6083 19.9252ZM55.5834 13.4883C55.217 12.329 54.7567 11.2017 54.2072 10.1176C52.2144 6.28755 49.2405 4.21079 45.7245 4.21079C45.4677 4.20184 45.2109 4.2276 44.961 4.28735C44.8846 4.13423 44.7319 4.05767 44.6556 3.90454C43.1286 2.22591 41.1434 1.46028 38.7727 1.5311C34.1916 1.68423 29.6105 4.97642 25.9361 10.8775C23.3382 15.0157 21.355 20.2258 20.8167 24.2874C15.5446 25.8952 11.8778 27.0456 11.8015 27.1221C9.12918 27.9643 9.05092 28.0409 8.74742 30.5674C8.51837 32.4815 1.49402 86.4236 1.49402 86.4236L59.2502 96.4686V12.5695C58.9691 12.5801 58.6887 12.6057 58.4103 12.6461C58.4103 12.6461 57.3414 12.9523 55.5834 13.4883ZM45.0393 16.7843C41.9852 17.703 38.62 18.7749 35.335 19.7721C36.2512 16.1699 38.0855 12.5695 40.2253 10.2018C41.0652 9.35962 42.2123 8.36239 43.5103 7.74989C44.8102 10.5004 45.1156 14.2558 45.0393 16.7843ZM38.7727 4.67782C39.7352 4.6474 40.6874 4.88314 41.5252 5.35923C40.3036 5.97173 39.08 6.96895 37.9347 8.11739C35.0315 11.2603 32.8154 16.1565 31.8991 20.8363C29.1467 21.6804 26.3961 22.5226 23.8822 23.2883C25.5543 15.9402 31.7426 4.83095 38.7727 4.67782ZM29.9102 46.8197C30.2156 51.7217 43.1286 52.7954 43.8921 64.364C44.4265 73.4826 39.0781 79.688 31.3609 80.1493C22.0402 80.7618 16.9209 75.2455 16.9209 75.2455L18.906 66.8236C18.906 66.8236 24.0254 70.7321 28.1522 70.4259C30.8245 70.2728 31.8209 68.0505 31.7426 66.5174C31.3609 60.0823 20.8167 60.4651 20.1295 49.8918C19.5187 41.0029 25.3253 32.0393 38.1619 31.1952C43.1247 30.889 45.6501 32.1159 45.6501 32.1159L42.7468 43.1409C42.7468 43.1409 39.4618 41.6097 35.564 41.9159C29.9102 42.3006 29.8338 45.8991 29.9102 46.8197ZM48.0952 15.8636C48.0952 13.5667 47.7898 10.2707 46.719 7.51255C50.235 8.20161 51.9147 12.1063 52.6801 14.4855C51.3045 14.8683 49.7762 15.3277 48.0952 15.8636Z" fill="#5200FF"/>
</svg>
