<svg width="90" height="80" viewBox="0 0 90 80" fill="none" xmlns="http://www.w3.org/2000/svg">
<path d="M15 20C16.9778 20 18.9112 19.4135 20.5557 18.3147C22.2002 17.2159 23.4819 15.6541 24.2388 13.8268C24.9957 11.9996 25.1937 9.98891 24.8079 8.0491C24.422 6.10929 23.4696 4.32746 22.0711 2.92894C20.6725 1.53041 18.8907 0.578004 16.9509 0.192152C15.0111 -0.193701 13.0004 0.00433281 11.1732 0.761209C9.34591 1.51809 7.78412 2.79981 6.6853 4.4443C5.58649 6.08879 5 8.02219 5 10C5 12.6522 6.05357 15.1957 7.92893 17.0711C9.8043 18.9464 12.3478 20 15 20ZM15 47.5125C14.9978 46.5781 15.1856 45.6531 15.5519 44.7935C15.9183 43.934 16.4556 43.1579 17.1313 42.5125L28.4016 31.875C28.6594 31.6328 28.9906 31.5141 29.2781 31.3172C28.5428 29.4557 27.265 27.8581 25.6106 26.7316C23.9562 25.6052 22.0015 25.0019 20 25H10C7.34784 25 4.8043 26.0536 2.92893 27.9289C1.05357 29.8043 0 32.3478 0 35L0 50C0 51.3261 0.526784 52.5979 1.46447 53.5355C2.40215 54.4732 3.67392 55 5 55V75C5 76.3261 5.52678 77.5979 6.46447 78.5355C7.40215 79.4732 8.67392 80 10 80H20C21.3261 80 22.5979 79.4732 23.5355 78.5355C24.4732 77.5979 25 76.3261 25 75V59.9391L17.1313 52.5125C16.4554 51.8672 15.9179 51.0912 15.5515 50.2316C15.1852 49.3721 14.9975 48.4469 15 47.5125ZM75 20C76.9778 20 78.9112 19.4135 80.5557 18.3147C82.2002 17.2159 83.4819 15.6541 84.2388 13.8268C84.9957 11.9996 85.1937 9.98891 84.8079 8.0491C84.422 6.10929 83.4696 4.32746 82.0711 2.92894C80.6725 1.53041 78.8907 0.578004 76.9509 0.192152C75.0111 -0.193701 73.0004 0.00433281 71.1732 0.761209C69.3459 1.51809 67.7841 2.79981 66.6853 4.4443C65.5865 6.08879 65 8.02219 65 10C65 12.6522 66.0536 15.1957 67.9289 17.0711C69.8043 18.9464 72.3478 20 75 20ZM80 25H70C67.9987 25.0018 66.0441 25.6048 64.3897 26.731C62.7353 27.8571 61.4575 29.4544 60.7219 31.3156C61.0094 31.5141 61.3469 31.6281 61.6 31.8766L72.8687 42.5109C73.5423 43.1579 74.0782 43.9343 74.4443 44.7935C74.8104 45.6527 74.9991 46.577 74.9991 47.5109C74.9991 48.4449 74.8104 49.3692 74.4443 50.2284C74.0782 51.0876 73.5423 51.864 72.8687 52.5109L65 59.9406V75C65 76.3261 65.5268 77.5979 66.4645 78.5355C67.4021 79.4732 68.6739 80 70 80H80C81.3261 80 82.5979 79.4732 83.5355 78.5355C84.4732 77.5979 85 76.3261 85 75V55C86.3261 55 87.5979 54.4732 88.5355 53.5355C89.4732 52.5979 90 51.3261 90 50V35C90 32.3478 88.9464 29.8043 87.0711 27.9289C85.1957 26.0536 82.6522 25 80 25ZM69.4375 46.1469L58.1688 35.5125C57.9028 35.2589 57.5681 35.0891 57.2064 35.0242C56.8447 34.9592 56.4719 35.002 56.1343 35.1471C55.7967 35.2923 55.5093 35.5334 55.3076 35.8406C55.1059 36.1478 54.9989 36.5075 55 36.875V42.5H35V36.875C35.0014 36.5074 34.8946 36.1475 34.6931 35.8401C34.4915 35.5326 34.204 35.2912 33.8664 35.1459C33.5287 35.0005 33.1558 34.9576 32.7939 35.0225C32.4321 35.0874 32.0973 35.2573 31.8312 35.5109L20.5625 46.1469C20.2023 46.5098 20.0002 47.0004 20.0002 47.5117C20.0002 48.0231 20.2023 48.5136 20.5625 48.8766L31.8312 59.5125C32.0974 59.7663 32.4323 59.9361 32.7943 60.001C33.1563 60.0658 33.5294 60.0228 33.8671 59.8773C34.2048 59.7317 34.4923 59.4901 34.6937 59.1824C34.8952 58.8747 35.0017 58.5146 35 58.1469V52.5H55V58.1469C54.9983 58.5146 55.1048 58.8747 55.3063 59.1824C55.5077 59.4901 55.7952 59.7317 56.1329 59.8773C56.4706 60.0228 56.8437 60.0658 57.2057 60.001C57.5676 59.9361 57.9026 59.7663 58.1688 59.5125L69.4375 48.8766C69.7977 48.5136 69.9998 48.0231 69.9998 47.5117C69.9998 47.0004 69.7977 46.5098 69.4375 46.1469Z" fill="#5200FF"/>
</svg>
