<svg width="99" height="98" viewBox="0 0 99 98" fill="none" xmlns="http://www.w3.org/2000/svg">
<path d="M12.6683 32.4242L32.0425 85.6351C18.4901 79.0508 9.15612 65.1164 9.15612 49C9.15612 43.0855 10.4159 37.4965 12.6683 32.4242ZM77.1663 46.952C77.1663 41.918 75.3721 38.4344 73.826 35.7164C71.7645 32.3668 69.8366 29.5148 69.8366 26.1652C69.8366 22.4137 72.6616 18.9301 76.651 18.9301C76.8227 18.9301 76.9945 18.9492 77.1854 18.9684C69.9511 12.3266 60.3308 8.26875 49.7561 8.26875C35.5738 8.26875 23.0903 15.5613 15.8178 26.6246C16.7722 26.6629 17.6693 26.682 18.4328 26.682C22.6704 26.682 29.2557 26.1652 29.2557 26.1652C31.4508 26.0312 31.6989 29.266 29.5229 29.5148C29.5229 29.5148 27.3278 29.7637 24.8846 29.8977L39.6777 73.9977L48.5726 47.2773L42.2546 29.8977C40.0594 29.7637 37.9979 29.5148 37.9979 29.5148C35.8028 29.3809 36.0701 26.0312 38.2461 26.1652C38.2461 26.1652 44.9459 26.682 48.9353 26.682C53.1728 26.682 59.7582 26.1652 59.7582 26.1652C61.9533 26.0312 62.2014 29.266 60.0254 29.5148C60.0254 29.5148 57.8303 29.7637 55.387 29.8977L70.0656 73.6723L74.1123 60.1016C75.8302 54.4742 77.1663 50.4355 77.1663 46.952ZM50.4624 52.5602L38.2843 88.066C41.9301 89.1379 45.7667 89.7312 49.7561 89.7312C54.4899 89.7312 59.0137 88.9082 63.2322 87.4152C63.1176 87.243 63.0222 87.0516 62.9458 86.8601L50.4624 52.5602ZM85.3932 29.4574C85.565 30.759 85.6605 32.1371 85.6605 33.6492C85.6605 37.7836 84.8969 42.4156 82.5682 48.2344L70.1611 84.1996C82.2437 77.1367 90.3561 64.0254 90.3561 49C90.3561 41.918 88.5618 35.257 85.3932 29.4574ZM97.0941 49C97.0941 75.1844 75.8493 96.4687 49.7561 96.4687C23.6438 96.4687 2.41809 75.1652 2.41809 49C2.41809 22.8156 23.6438 1.53125 49.7561 1.53125C75.8493 1.53125 97.0941 22.8156 97.0941 49ZM94.9181 49C94.9181 24.0215 74.6467 3.71328 49.7561 3.71328C24.8464 3.71328 4.59411 24.0215 4.59411 49C4.59411 73.9785 24.8655 94.2867 49.7561 94.2867C74.6658 94.2867 94.9181 73.9785 94.9181 49Z" fill="#5200FF"/>
</svg>
